{"title":"Beautiful Creatures.RUS.2013.Ts.Xvid-RUTOR","uid":8163011,"size":1470308352,"categoryP":"video","categoryS":"movies","magnet":"?xt=urn:btih:ec2115bc4b5a8167812f834f164de59e944466c8&amp;dn=Beautiful+Creatures.RUS.2013.Ts.Xvid-RUTOR&amp;tr=udp%3A%2F%2Ftracker.openbittorrent.com%3A80&amp;tr=udp%3A%2F%2Fopen.demonii.com%3A1337&amp;tr=udp%3A%2F%2Ftracker.coppersurfer.tk%3A6969&amp;tr=udp%3A%2F%2Fexodus.desync.com%3A6969","seeders":1,"leechers":0,"uploader":"xxxlavalxxx","files":1,"time":1361283981,"description":" &lt;a href=&quot;\nhttp://www.imdb.com/title/tt1559547/&quot; rel=&quot;nofollow&quot; target=&quot;_NEW&quot;&gt;\nhttp://www.imdb.com/title/tt1559547/&lt;/a&gt;\n\n\n\nPlot:Ethan longs to escape his small Southern town. He meets a mysterious new girl, Lena. Together, they uncover dark secrets about their respective families, their history and their town. \n\n\n\nDirector:\n Richard LaGravenese\n\nWriters:\n Richard LaGravenese (screenplay), Kami Garcia (novel)\n\nStars:\n Alice Englert, Viola Davis, Emma Thompson\n\nGenres:\n Drama | Fantasy | Romance \n\nCountry:\nUSA \n\n\n\n\nFormat                                   : AVI\nFormat/Info                              : Audio Video Interleave\nFile size                                : 1.37 GiB\nDuration                                 : 1h 57mn\nOverall bit rate                         : 1 673 Kbps\nWriting application                      : VirtualDubMod 1.5.10.3 | www.virtualdub-fr.org || (build 2550/release)\nWriting library                          : VirtualDubMod build 2550/release\n\nVideo\nID                                       : 0\nFormat                                   : MPEG-4 Visual\nFormat profile                           : Advanced Simple@L5\nFormat settings, BVOP                    : 2\nFormat settings, QPel                    : No\nFormat settings, GMC                     : No warppoints\nFormat settings, Matrix                  : Default (MPEG)\nMuxing mode                              : Packed bitstream\nCodec ID                                 : XVID\nCodec ID/Hint                            : XviD\nDuration                                 : 1h 57mn\nBit rate                                 : 1 535 Kbps\nWidth                                    : 720 pixels\nHeight                                   : 304 pixels\nDisplay aspect ratio                     : 2.35:1\nFrame rate                               : 25.000 fps\nColor space                              : YUV\nChroma subsampling                       : 4:2:0\nBit depth                                : 8 bits\nScan type                                : Progressive\nCompression mode                         : Lossy\nBits/(Pixel*Frame)                       : 0.281\nStream size                              : 1.26 GiB (92%)\nWriting library                          : XviD 73\n\nAudio\nID                                       : 1\nFormat                                   : MPEG Audio\nFormat version                           : Version 1\nFormat profile                           : Layer 3\nCodec ID                                 : 55\nCodec ID/Hint                            : MP3\nDuration                                 : 1h 57mn\nBit rate mode                            : Constant\nBit rate                                 : 128 Kbps\nChannel(s)                               : 2 channels\nSampling rate                            : 44.1 KHz\nCompression mode                         : Lossy\nStream size                              : 107 MiB (8%)\nAlignment                                : Split accross interleaves\nInterleave, duration                     : 40 ms (1.00 video frame)\nInterleave, preload duration             : 500 ms\n\n\n\n &lt;a href=&quot;\nhttp://bayimg.com/mAJEGaaEM&quot; rel=&quot;nofollow&quot; target=&quot;_NEW&quot;&gt;\nhttp://bayimg.com/mAJEGaaEM&lt;/a&gt;\n &lt;a href=&quot;\nhttp://bayimg.com/MAJEhaAEM&quot; rel=&quot;nofollow&quot; target=&quot;_NEW&quot;&gt;\nhttp://bayimg.com/MAJEhaAEM&lt;/a&gt;\n &lt;a href=&quot;\nhttp://bayimg.com/mAJeIaAem&quot; rel=&quot;nofollow&quot; target=&quot;_NEW&quot;&gt;\nhttp://bayimg.com/mAJeIaAem&lt;/a&gt;\n","torrent":{"xt":"urn:btih:ec2115bc4b5a8167812f834f164de59e944466c8","amp;dn":"Beautiful+Creatures.RUS.2013.Ts.Xvid-RUTOR","amp;tr":["udp%3A%2F%2Ftracker.openbittorrent.com%3A80","udp%3A%2F%2Fopen.demonii.com%3A1337","udp%3A%2F%2Ftracker.coppersurfer.tk%3A6969","udp%3A%2F%2Fexodus.desync.com%3A6969"],"infoHash":"ec2115bc4b5a8167812f834f164de59e944466c8","infoHashBuffer":{"type":"Buffer","data":[236,33,21,188,75,90,129,103,129,47,131,79,22,77,229,158,148,68,102,200]},"announce":[],"urlList":[]}}